<svg xmlns="http://www.w3.org/2000/svg" fill="none" viewBox="0 0 24 24" strokeWidth={1.5} stroke="currentColor" className="w-6 h-6">
  <path strokeLinecap="round" strokeLinejoin="round" d="M12 21a9.004 9.004 0 008.716-4.037m-7.32 7.32A5.004 5.004 0 0012 17a5.004 5.004 0 00-1.384-2.963m1.32 7.32A9.004 9.004 0 0112 3a9.004 9.004 0 00-8.716 4.037m7.32 7.32c.183.183.35.37.502.563m-5.004-5.004c.183.183.35.37.502.563m-1.32-7.32A5.004 5.004 0 0012 7a5.004 5.004 0 001.384 2.963m-1.32-7.32c.179.03.355.06.53.093" />
</svg>
